#!OML:ASF H:\Terrain\Patient Classification 1\Terrain2\Thursday\justin.ASF
:FULLY-SPECIFIED
:DEGREES
1577
root -1.11203 17.1956 -21.6067 -360.795 0.0655727 -8.80479
lowerback 6.86986 -0.344419 8.12889
upperback 2.78665 0.14391 5.47141
thorax -0.950694 0.091114 1.10543
lowerneck -14.0545 -0.53518 -7.21641
upperneck 38.174 1.67054 -0.343173
head 15.8929 -0.382864 1.42627
rclavicle 1.0138e-014 -3.57812e-014
rhumerus -30.5087 -7.15885 -75.8276
rradius 40.0652
rwrist -19.9593
rhand -23.9213 11.6744
rfingers 7.12502
rthumb 2.55338 -18.29
lclavicle 1.0138e-014 -3.57812e-014
lhumerus -36.6315 13.7514 79.7526
lradius 23.5061
lwrist -2.8372
lhand -13.7364 20.7515
lfingers 7.12502
lthumb 12.3832 50.3647
rfemur -0.99749 -6.35239 32.9503
rtibia 21.2546
rfoot -18.2294 5.3448
rtoes 18.1073
lfemur -31.3425 4.20784 -8.52524
ltibia 66.8868
lfoot -10.282 -20.5744
ltoes -7.22166
1578
root -1.13255 17.2057 -21.5962 -361.007 0.104246 -8.90475
lowerback 7.00664 -0.167923 8.27519
upperback 2.8561 0.398213 5.44224
thorax -0.942251 0.220255 0.9753
lowerneck -13.8152 -0.789366 -7.10931
upperneck 38.2677 1.25122 -0.383
head 15.9026 -0.546879 1.31887
rclavicle -2.01766e-014 -6.2816e-014
rhumerus -30.4532 -7.59102 -75.6351
rradius 39.596
rwrist -19.9873
rhand -23.5285 11.9106
rfingers 7.12502
rthumb 2.93267 -18.049
lclavicle -2.01766e-014 -6.2816e-014
lhumerus -36.4437 13.7962 79.8633
lradius 23.2707
lwrist -3.25954
lhand -13.8465 20.9762
lfingers 7.12502
lthumb 12.2771 50.5958
rfemur -0.240025 -6.75955 33.0478
rtibia 20.2004
rfoot -17.6789 5.70091
rtoes 17.9337
lfemur -32.6626 4.99014 -8.53413
ltibia 69.7315
lfoot -9.94369 -22.2369
ltoes -3.64824
1579
root -1.15301 17.2248 -21.5839 -361.144 0.101369 -8.69374
lowerback 7.12594 -0.0133293 8.02435
upperback 2.90916 0.596578 5.40705
thorax -0.948239 0.31862 1.06136
lowerneck -13.683 -0.96895 -7.23586
upperneck 38.4491 0.943361 -0.197815
head 15.9752 -0.670911 1.37048
rclavicle 1.88845e-014 1.59028e-014
rhumerus -30.1605 -8.04763 -75.399
rradius 38.7054
rwrist -19.6386
rhand -23.3365 12.7532
rfingers 7.12502
rthumb 3.11817 -17.2037
lclavicle 1.88845e-014 1.59028e-014
lhumerus -36.3614 13.9709 80.0035
lradius 23.0621
lwrist -3.55625
lhand -13.9746 20.619
lfingers 7.12502
lthumb 12.1536 50.246
rfemur 0.482166 -6.99972 32.8271
rtibia 19.1733
rfoot -17.3134 5.91217
rtoes 17.2307
lfemur -34.0551 5.68966 -8.91264
ltibia 72.5107
lfoot -10.5571 -21.8798
ltoes -3.82473
1580
root -1.17554 17.2456 -21.5695 -361.304 0.0168205 -8.45081
lowerback 7.3789 0.0945153 7.67733
upperback 2.98369 0.74017 5.39923
thorax -1.01153 0.387698 1.23258
lowerneck -13.8084 -1.04572 -7.47666
upperneck 38.6779 0.815397 0.0845428
head 16.1276 -0.72707 1.5169
rclavicle 2.88238e-015 6.75868e-014
rhumerus -29.8036 -8.27771 -75.2844
rradius 37.9363
rwrist -19.0775
rhand -23.5193 13.1254
rfingers 7.12502
rthumb 2.94156 -16.834
lclavicle 2.88238e-015 6.75868e-014
lhumerus -36.3803 14.3682 80.0841
lradius 23.0119
lwrist -3.77754
lhand -13.9005 20.5448
lfingers 7.12502
lthumb 12.225 50.1675
rfemur 1.28537 -6.85266 32.624
rtibia 18.1502
rfoot -16.8888 5.80095
rtoes 17.4358
lfemur -35.4378 6.39376 -9.29373
ltibia 75.2557
lfoot -11.7675 -20.7383
ltoes -5.73277
1581
root -1.19726 17.2622 -21.5579 -361.436 0.00154918 -8.39789
lowerback 7.6082 0.155081 7.57673
upperback 3.09937 0.830651 5.41419
thorax -1.01727 0.43365 1.29576
lowerneck -14.0316 -1.07303 -7.65055
upperneck 38.7622 0.776993 0.291718
head 16.2264 -0.742711 1.63382
rclavicle -5.66536e-015 4.45278e-014
rhumerus -29.4889 -8.12311 -75.3469
rradius 37.7475
rwrist -18.7232
rhand -23.8115 11.7352
rfingers 7.12502
rthumb 2.65941 -18.2279
lclavicle -5.66536e-015 4.45278e-014
lhumerus -36.3123 14.9362 80.0995
lradius 22.932
lwrist -4.10499
lhand -13.8279 20.9335
lfingers 7.12502
lthumb 12.2951 50.552
rfemur 2.07249 -6.67298 32.6643
rtibia 17.0033
rfoot -16.4147 5.41181
rtoes 17.2688
lfemur -36.8856 7.00534 -9.44763
ltibia 77.991
lfoot -12.9775 -19.1943
ltoes -7.25843
1582
root -1.21598 17.2808 -21.543 -361.501 0.0190857 -8.35588
lowerback 7.67511 0.24438 7.6294
upperback 3.17815 0.952708 5.35249
thorax -0.966117 0.497611 1.19231
lowerneck -13.8312 -1.11236 -7.65426
upperneck 38.5185 0.666121 0.361425
head 16.0545 -0.769023 1.64292
rclavicle -1.19271e-014 -4.77083e-015
rhumerus -29.2679 -8.24517 -75.3404
rradius 36.8761
rwrist -18.2199
rhand -24.0627 13.557
rfingers 7.12502
rthumb 2.41683 -16.4091
lclavicle -1.19271e-014 -4.77083e-015
lhumerus -36.3039 15.2759 80.0905
lradius 23.0335
lwrist -4.45176
lhand -13.0132 20.9719
lfingers 7.12502
lthumb 13.0804 50.5417
rfemur 2.8319 -6.61753 32.6945
rtibia 15.738
rfoot -15.8646 5.13534
rtoes 15.9978
lfemur -38.3841 7.49325 -9.62096
ltibia 80.6639
lfoot -13.8265 -17.2313
ltoes -7.64518
1583
root -1.23432 17.3032 -21.5234 -361.589 0.0290231 -8.26802
lowerback 7.82215 0.334185 7.64278
upperback 3.12134 1.09367 5.24983
thorax -1.09996 0.564235 1.06452
lowerneck -13.3217 -1.13192 -7.50923
upperneck 38.3404 0.560611 0.300261
head 15.8432 -0.790476 1.56971
rclavicle 3.97569e-016 1.98785e-014
rhumerus -29.1677 -8.37984 -75.4193
rradius 36.1312
rwrist -17.7188
rhand -24.2405 13.4636
rfingers 7.12502
rthumb 2.24509 -16.5043
lclavicle 3.97569e-016 1.98785e-014
lhumerus -36.6031 14.9476 80.2861
lradius 23.4098
lwrist -3.75174
lhand -12.8254 20.0413
lfingers 7.12502
lthumb 13.2615 49.5994
rfemur 3.67547 -6.5071 32.6662
rtibia 14.3813
rfoot -15.1958 5.00703
rtoes 16.2526
lfemur -39.8843 7.96111 -9.87648
ltibia 83.2373
lfoot -14.5042 -15.5641
ltoes -8.53609
1584
root -1.25379 17.3243 -21.5067 -361.62 0.0268182 -8.28133
lowerback 7.95175 0.409782 7.72482
upperback 3.09133 1.21687 5.18706
thorax -1.19526 0.623369 0.941791
lowerneck -13.2262 -1.20246 -7.69299
upperneck 38.4522 0.385351 0.612324
head 15.8836 -0.849419 1.70932
rclavicle 1.61016e-014 2.14687e-014
rhumerus -28.9542 -8.44766 -75.5931
rradius 35.4567
rwrist -17.1474
rhand -24.0192 12.7365
rfingers 7.12502
rthumb 2.45884 -17.2291
lclavicle 1.61016e-014 2.14687e-014
lhumerus -36.768 14.6115 80.5419
lradius 23.6521
lwrist -2.85572
lhand -13.9457 19.6277
lfingers 7.12502
lthumb 12.1815 49.2531
rfemur 4.5363 -6.30185 32.7827
rtibia 12.838
rfoot -14.5533 4.83061
rtoes 17.4493
lfemur -41.4875 8.51678 -10.0264
ltibia 85.7144
lfoot -15.2051 -14.2085
ltoes -9.91591
1585
root -1.27118 17.3434 -21.4917 -361.616 -0.0969765 -8.3196
lowerback 7.99597 0.507933 7.79457
upperback 3.17629 1.34942 5.17968
thorax -1.12367 0.692892 0.884494
lowerneck -13.3649 -1.29329 -8.0212
upperneck 38.5513 0.212817 1.01096
head 15.9768 -0.917323 1.91376
rclavicle 4.96962e-015 4.29375e-014
rhumerus -28.6645 -8.34895 -75.748
rradius 34.9949
rwrist -16.6863
rhand -23.5217 11.6955
rfingers 7.12502
rthumb 2.93926 -18.264
lclavicle 4.96962e-015 4.29375e-014
lhumerus -36.7805 14.8991 80.5478
lradius 23.8234
lwrist -3.18792
lhand -13.7323 20.4936
lfingers 7.12502
lthumb 12.3872 50.1066
rfemur 5.53029 -6.1594 32.9084
rtibia 10.9643
rfoot -13.6771 4.73989
rtoes 17.5517
lfemur -43.0325 9.21854 -10.1396
ltibia 88.0699
lfoot -15.9965 -13.2647
ltoes -10.0992
